<?xml version="1.0" encoding="utf-8"?>
<!-- Generator: Adobe Illustrator 16.0.4, SVG Export Plug-In . SVG Version: 6.00 Build 0)  -->
<!DOCTYPE svg PUBLIC "-//W3C//DTD SVG 1.1//EN" "http://www.w3.org/Graphics/SVG/1.1/DTD/svg11.dtd">
<svg version="1.1" id="Layer_1" xmlns="http://www.w3.org/2000/svg" xmlns:xlink="http://www.w3.org/1999/xlink" x="0px" y="0px"
	 width="500.0px" height="500.0px" viewBox="0 0 500 500" enable-background="new 0 0 500 500"
	 xml:space="preserve">

<g transform="translate(250 250)">
	<!-- left arm -->
	<g transform="translate(-40 -40)">
		<g transform="scale(.6 .2)">
			<polygon fill="#008000" points="-50,-50 50,-50 -50,50 "/>
			<polygon fill="#008000" points="-50,50 50,-50 50,50"/>
		</g>
		<g transform="translate(-40 40)">
			<g transform="rotate(-90)">
				<g transform="scale(.6 .2)">
					<polygon fill="#008000" points="-50,-50 50,-50 -50,50 "/>
					<polygon fill="#008000" points="-50,50 50,-50 50,50"/>
				</g>
			</g>
		</g>
	</g>

	<!-- torso -->
	<g transform="rotate(20)">
		<g transform="scale(.8 1)">
			<polygon fill="#DAA520" points="-50,-50 50,-50 -50,50 "/>
			<polygon fill="#DAA520" points="-50,50 50,-50 50,50"/>
		</g>
	</g>

	<!-- head -->
	<g transform="translate(10 -100)">
		<g transform="rotate(30)">
			<g transform="scale(.4 .6)">
				<polygon fill="#000080" points="-50,-50 50,-50 -50,50 "/> <!--blue-->
				<polygon fill="#000080" points="-50,50 50,-50 50,50"/>
			</g>
		</g>
	</g>

	<!-- left leg -->
	<g transform="translate(-60 90)">
		<g transform="rotate(30)">
			<g transform="scale(.2 .8)">
				<polygon fill="#008000" points="-50,-50 50,-50 -50,50 "/> <!--green-->
				<polygon fill="#008000" points="-50,50 50,-50 50,50"/>
			</g>
			<g transform="rotate(90)">
				<g transform="translate(40 50)">
					<g transform="scale(.2 .6)">
						<polygon fill="#008000" points="-50,-50 50,-50 -50,50 "/>
						<polygon fill="#008000" points="-50,50 50,-50 50,50"/>
					</g>
					<g transform="translate(10 40)">
						<g transform="rotate(80)">
							<g transform="scale(.2 .4)">
								<polygon fill="#008000" points="-50,-50 50,-50 -50,50 "/>
								<polygon fill="#008000" points="-50,50 50,-50 50,50"/>
							</g>
						</g>
					</g>
				</g>
			</g>
		</g>
	</g>

	<!-- right leg -->
	<g transform="translate(60 90)">
		<g transform="rotate(-60)">
			<g transform="scale(.2 .8)">
				<polygon fill="#EF161F" points="-50,-50 50,-50 -50,50 "/>
				<polygon fill="#EF161F" points="-50,50 50,-50 50,50"/>
			</g>
			<g transform="rotate(80)">
				<g transform="translate(30 50)">
					<g transform="scale(.2 .6)">
						<polygon fill="#EF161F" points="-50,-50 50,-50 -50,50 "/>
						<polygon fill="#EF161F" points="-50,50 50,-50 50,50"/>
					</g>
				</g>
				<g transform="translate(40 90)">
					<g transform="rotate(80)">
						<g transform="scale(.2 .4)">
							<polygon fill="#EF161F" points="-50,-50 50,-50 -50,50 "/>
							<polygon fill="#EF161F" points="-50,50 50,-50 50,50"/>
						</g>
					</g>
				</g>
			</g>
		</g>
	</g>



	<!-- right arm -->
	<g transform="translate(30 -10)">
		<g transform="rotate(45)">
			<g transform="scale(.6 .2)">
				<polygon fill="#EF161F" points="-50,-50 50,-50 -50,50 "/>
				<polygon fill="#EF161F" points="-50,50 50,-50 50,50"/>
			</g>
			<g transform="translate(50 -40)">
				<g transform="rotate(-90)">
					<g transform="scale(.6 .2)">
						<polygon fill="#EF161F" points="-50,-50 50,-50 -50,50 "/>
						<polygon fill="#EF161F" points="-50,50 50,-50 50,50"/>
					</g>
				</g>
			</g>
		</g>
	</g>

</g>


</svg>
